<?xml version="1.0" standalone="no"?>
<!DOCTYPE svg PUBLIC "-//W3C//DTD SVG 1.1//EN" "http://www.w3.org/Graphics/SVG/1.1/DTD/svg11.dtd">
<svg xmlns="http://www.w3.org/2000/svg">
<metadata>Generated by Fontastic.me</metadata>
<defs>
<font id="el-perfil" horiz-adv-x="512">
<font-face font-family="el-perfil" units-per-em="512" ascent="480" descent="-32"/>
<missing-glyph horiz-adv-x="512" />

<glyph glyph-name="watch" unicode="&#97;" d="M288 203c-6 0-11 2-15 6l-32 32c-4 4-6 9-6 14l0 65c0 12 10 22 22 22 11 0 21-10 21-22l0-55 26-26c8-8 8-22 0-30-5-4-11-6-16-6z m-118 148c3 1 5 3 6 5-2-2-3-3-6-5z m204 28l-7 74c-3 34-31 59-64 59 0 0 0 0 0 0l-93 0c-34 0-61-25-64-58l-6-74c-34-31-54-75-54-124 0-49 20-93 53-124l7-74c3-33 30-58 63-58l93 0c34 0 61 25 64 58l7 74c33 31 53 75 53 124 0 48-20 92-52 123z m-185 71c1 11 10 20 21 20l93 0c11 0 20-9 21-20l4-39c-22 10-46 15-72 15-25 0-49-5-71-15z m135-388c-1-6-3-10-8-14-4-3-9-6-14-6l-93 0c-10 0-20 9-21 20l-3 39c21-10 46-15 71-15 25 0 50 5 71 15z m15 97c0 0-1-1-1-1-22-19-51-30-82-30-31 0-60 11-82 30 0 0-1 1-1 1-28 24-45 58-45 97 0 38 16 72 42 95 2 2 4 3 6 5 22 18 50 28 80 28 71 0 128-57 128-128 0-39-17-73-45-97z"/>
<glyph glyph-name="volume-x" unicode="&#98;" d="M234 86c-4 0-9 1-13 4l-101 80-78 0c-11 0-21 10-21 22l0 128c0 12 10 22 21 22l78 0 101 80c7 6 16 7 23 3 7-4 12-11 12-19l0-299c0-8-5-16-12-19-3-2-6-2-10-2z m-170 128l64 0c5 0 10-2 13-5l73-58 0 210-73-58c-3-3-8-5-13-5l-64 0z m406-44c-6 0-11 3-15 7l-49 49-50-49c-8-9-22-9-30 0-8 8-8 22 0 30l49 49-49 49c-8 8-8 22 0 30 8 9 22 9 30 0l50-49 49 49c8 9 22 9 30 0 8-8 8-22 0-30l-49-49 49-49c8-8 8-22 0-30-5-4-10-7-15-7z"/>
<glyph glyph-name="volume-2" unicode="&#99;" d="M234 86c-4 0-9 1-13 4l-101 80-78 0c-11 0-21 10-21 22l0 128c0 12 10 22 21 22l78 0 101 80c7 6 16 7 23 3 7-4 12-11 12-19l0-299c0-8-5-16-12-19-3-2-6-2-10-2z m-170 128l64 0c5 0 10-2 13-5l73-58 0 210-73-58c-3-3-8-5-13-5l-64 0z m343-130c-6 0-11 2-15 6-8 8-8 22 0 30 75 75 75 197 0 272-8 8-8 22 0 30 8 8 22 8 30 0 92-92 92-240 0-332-4-4-10-6-15-6z m-75 75c-6 0-11 2-15 6-8 9-8 22 0 31 33 33 33 87 0 120-8 9-8 22 0 31 8 8 22 8 30 0 50-50 50-131 0-182-4-4-10-6-15-6z"/>
<glyph glyph-name="volume-1" unicode="&#100;" d="M234 86c-4 0-9 1-13 4l-101 80-78 0c-11 0-21 10-21 22l0 128c0 12 10 22 21 22l78 0 101 80c7 6 16 7 23 3 7-4 12-11 12-19l0-299c0-8-5-16-12-19-3-2-6-2-10-2z m-170 128l64 0c5 0 10-2 13-5l73-58 0 210-73-58c-3-3-8-5-13-5l-64 0z m268-55c-6 0-11 2-15 6-8 9-8 22 0 31 33 33 33 87 0 120-8 9-8 22 0 31 8 8 22 8 30 0 50-50 50-131 0-182-4-4-10-6-15-6z"/>
<glyph glyph-name="volume" unicode="&#101;" d="M234 86c-4 0-9 1-13 4l-101 80-78 0c-11 0-21 10-21 22l0 128c0 12 10 22 21 22l78 0 101 80c7 6 16 7 23 3 7-4 12-11 12-19l0-299c0-8-5-16-12-19-3-2-6-2-10-2z m-170 128l64 0c5 0 10-2 13-5l73-58 0 210-73-58c-3-3-8-5-13-5l-64 0z"/>
<glyph glyph-name="video" unicode="&#102;" d="M278 86l-192 0c-36 0-64 28-64 64l0 212c0 36 28 64 64 64l192 0c35 0 64-28 64-64l0-65 115 83c7 5 15 5 22 1 7-3 12-10 12-19l0-213c0-8-5-15-11-19-7-4-16-3-22 2l-116 82 0-64c0-36-29-64-64-64z m-192 298c-12 0-22-10-22-22l0-213c0-12 10-22 22-22l192 0c11 0 21 10 21 22l0 213c0 12-10 22-21 22z m270-129l92-65 0 131z"/>
<glyph glyph-name="users" unicode="&#103;" d="M362 42c-11 0-21 10-21 22l0 42c0 36-29 64-64 64l-171 0c-35 0-64-28-64-64l0-42c0-12-9-22-21-22-12 0-21 10-21 22l0 42c0 59 48 107 106 107l171 0c59 0 106-48 106-107l0-42c1-12-9-22-21-22z m-170 214c-59 0-106 48-106 106 0 59 47 107 106 107 59 0 106-48 106-107 0-58-47-106-106-106z m0 170c-35 0-64-28-64-64 0-35 29-64 64-64 35 0 64 29 64 64 0 36-29 64-64 64z m298-384c-11 0-21 10-21 22l0 42c0 30-20 55-48 62-11 4-19 15-15 27 3 11 14 18 26 15 47-12 79-55 79-104l0-42c1-12-9-22-21-22z m-148 217c-10 0-19 6-21 15-3 12 4 23 15 27 23 5 41 23 46 46 5 16 2 33-7 48-8 15-22 25-39 29-11 4-19 15-15 27 3 11 14 18 26 15 27-7 50-25 65-49 15-25 19-53 12-81-10-38-39-67-77-77-2 0-4 0-5 0z"/>
<glyph glyph-name="user-plus" unicode="&#104;" d="M342 42c-12 0-22 10-22 22l0 42c0 36-29 64-64 64l-150 0c-35 0-64-28-64-64l0-42c0-12-9-22-21-22-12 0-21 10-21 22l0 42c0 59 48 107 106 107l150 0c59 0 106-48 106-107l0-42c0-12-9-22-20-22z m-161 214c-59 0-106 48-106 106 0 59 47 107 106 107 59 0 107-48 107-107 0-58-48-106-107-106z m0 170c-35 0-64-28-64-64 0-35 29-64 64-64 36 0 64 29 64 64 0 36-28 64-64 64z m331-148c0-12-10-22-22-22l-42 0 0-42c0-12-10-22-22-22-11 0-21 10-21 22l0 42-43 0c-11 0-21 10-21 22 0 11 10 21 21 21l43 0 0 43c0 11 10 21 21 21 12 0 22-10 22-21l0-43 42 0c12 0 22-10 22-21z"/>
<glyph glyph-name="user-minus" unicode="&#105;" d="M342 42c-12 0-22 10-22 22l0 42c0 36-29 64-64 64l-150 0c-35 0-64-28-64-64l0-42c0-12-9-22-21-22-12 0-21 10-21 22l0 42c0 59 48 107 106 107l150 0c59 0 106-48 106-107l0-42c0-12-9-22-20-22z m-161 214c-59 0-106 48-106 106 0 59 47 107 106 107 59 0 107-48 107-107 0-58-48-106-107-106z m0 170c-35 0-64-28-64-64 0-35 29-64 64-64 36 0 64 29 64 64 0 36-28 64-64 64z m309-170l-128 0c-11 0-21 10-21 22 0 11 10 21 21 21l128 0c12 0 22-10 22-21 0-12-10-22-22-22z"/>
<glyph glyph-name="user-check" unicode="&#106;" d="M342 42c-12 0-22 10-22 22l0 42c0 36-29 64-64 64l-150 0c-35 0-64-28-64-64l0-42c0-12-9-22-21-22-12 0-21 10-21 22l0 42c0 59 48 107 106 107l150 0c59 0 106-48 106-107l0-42c0-12-9-22-20-22z m-161 214c-59 0-106 48-106 106 0 59 47 107 106 107 59 0 107-48 107-107 0-58-48-106-107-106z m0 170c-35 0-64-28-64-64 0-35 29-64 64-64 36 0 64 29 64 64 0 36-28 64-64 64z m225-212c-6 0-12 2-15 6l-43 42c-8 8-8 22 0 30 8 9 22 9 30 0l28-27 70 70c8 8 22 8 30 0 9-8 9-22 0-30l-86-85c-4-4-9-6-14-6z"/>
<glyph glyph-name="user" unicode="&#107;" d="M426 42c-11 0-21 10-21 22l0 42c0 36-29 64-64 64l-171 0c-35 0-64-28-64-64l0-42c0-12-9-22-21-22-12 0-22 10-22 22l0 42c0 59 48 107 107 107l170 0c59 0 107-48 107-107l0-42c1-12-9-22-21-22z m-170 214c-59 0-106 48-106 106 0 59 47 107 106 107 59 0 106-48 106-107 0-58-47-106-106-106z m0 170c-35 0-64-28-64-64 0-35 29-64 64-64 35 0 64 29 64 64 0 36-29 64-64 64z"/>
<glyph glyph-name="unlock" unicode="&#108;" d="M405 298l-235 0 0 65c0 23 10 44 26 60 8 9 17 15 27 19 10 4 21 6 33 6 40 0 75-29 83-69 3-11 14-19 26-17 11 3 19 14 16 26-6 29-22 55-44 73-23 19-51 29-81 29-71 0-128-57-128-128l0-64-22 0c-35 0-64-28-64-64l0-148c0-36 29-64 64-64l300 0c35 0 64 28 63 63l0 149c0 36-29 64-64 64z m21-213c0-12-9-22-21-22l-299 0c-11 0-21 10-21 22l0 149c0 12 10 22 21 22l299 0c12 0 21-10 21-22z"/>
<glyph glyph-name="trending-up" unicode="&#109;" d="M470 363l0-128c0-12-10-21-22-21-12 0-22 9-22 21l0 76-144-145c-9-8-22-8-31 0l-70 71-106-107c-4-4-10-6-15-6-6 0-11 2-15 6-8 8-8 22 0 30l121 122c4 4 10 6 15 6 6 0 12-2 15-6l70-71 130 131-76 0c-12 0-22 9-22 21 0 12 10 22 22 22l128 0c12 0 22-10 22-22z"/>
<glyph glyph-name="shopping-cart" unicode="&#110;" d="M214 32c-24 0-43 19-43 42 0 24 19 43 43 43 23 0 42-19 42-43 0-23-19-42-42-42z m170 0c-24 0-42 19-42 42 0 24 18 43 42 43 24 0 42-19 42-43 0-23-18-42-42-42z m-168 107c-30 0-56 21-62 51l-54 247-46 0c-12 0-22 10-22 22 0 12 10 21 22 21l64 0c10 0 19-7 21-17l15-68 305 0c6 0 13-3 17-8 4-5 5-11 4-17l-34-180c-6-30-33-52-64-51l-164 0c-1 0-1 0-2 0z m-54 213l34-153c2-10 11-17 21-17l165 0c0 0 0 0 0 0 11 0 20 7 22 17l29 153z"/>
<glyph glyph-name="skip-back" unicode="&#111;" d="M406 64c-5 0-10 2-14 5l-213 170c-5 4-9 10-9 17 0 7 4 13 9 17l213 170c6 6 16 7 23 3 7-4 12-11 12-20l0-341c0-8-5-16-12-19-3-1-6-2-9-2z m-180 192l158-126 0 252z m-120-170c-11 0-21 9-21 21l0 299c0 11 10 21 21 21 12 0 22-10 22-21l0-299c0-12-10-21-22-21z"/>
<glyph glyph-name="skip-forward" unicode="&#112;" d="M106 64c-3 0-6 1-9 2-7 4-12 11-12 20l0 340c0 9 5 16 12 20 7 4 17 3 23-3l213-170c5-4 9-10 9-17 0-7-4-13-9-17l-213-170c-4-3-8-5-14-5z m22 318l0-252 158 126z m278-296c-12 0-22 9-22 21l0 299c0 11 10 21 22 21 11 0 21-10 21-21l0-299c-1-12-10-21-21-21z"/>
<glyph glyph-name="smartphone" unicode="&#113;" d="M362 22l-212 0c-36 0-64 28-64 64l0 340c0 36 28 64 64 64l213 0c35 0 64-28 64-64l0-341c-1-35-29-63-65-63z m-212 426c-12 0-22-10-22-22l0-341c0-12 10-22 22-22l213 0c12 0 22 10 22 22l0 341c0 12-10 22-22 22z m106-342c-12 0-22 10-22 22 0 12 10 22 21 22 12 0 22-10 22-22 0-12-9-22-21-22z"/>
<glyph glyph-name="star" unicode="&#114;" d="M388 42c-3 0-7 1-10 3l-122 64-122-64c-7-4-16-4-22 1-7 5-10 13-9 21l23 136-98 96c-6 6-8 14-6 22 3 8 9 13 17 14l137 20 61 124c4 7 11 11 19 11 8 0 15-4 19-11l61-124 136-20c8-1 15-6 17-14 3-8 1-16-5-22l-98-96 23-136c1-8-2-16-9-21-3-2-8-4-12-4z m-299 258l75-74c5-5 8-12 6-19l-17-105 93 50c6 3 14 3 20 0l93-50-17 104c-2 8 1 14 6 19l75 74-104 15c-7 1-13 6-16 12l-47 95-47-94c-3-6-9-11-15-12z"/>
<glyph glyph-name="stop-circle" unicode="&#115;" d="M256 22c-130 0-234 104-234 234 0 130 104 234 234 234 130 0 234-104 234-234 0-130-104-234-234-234z m0 426c-106 0-192-86-192-192 0-106 86-192 192-192 106 0 192 86 192 192 0 106-86 192-192 192z m64-278l-128 0c-12 0-22 10-22 22l0 128c0 12 10 22 22 22l128 0c12 0 22-10 22-22l0-128c0-12-10-22-22-22z m-106 44l85 0 0 84-85 0z"/>
<glyph glyph-name="sun" unicode="&#116;" d="M256 128c-71 0-128 57-128 128 0 71 57 128 128 128 71 0 128-57 128-128 0-71-57-128-128-128z m0 214c-47 0-86-39-86-86 0-47 39-86 86-86 47 0 86 39 86 86 0 47-39 86-86 86z m0-342c-12 0-22 10-22 22l0 42c0 12 10 22 22 22 12 0 22-10 22-22l0-42c0-12-10-22-22-22z m-166 68c-6 0-11 2-15 6-8 8-8 22 0 30l29 30c9 8 22 8 31 0 8-8 8-22 0-30l-30-30c-5-4-10-6-15-6z m332 0c-5 0-10 2-14 6l-30 30c-8 8-8 22 0 30 8 8 22 8 30 0l30-30c8-8 8-22 0-30-5-4-10-6-16-6z m68 166l-42 0c-12 0-22 10-22 22 0 12 10 22 22 22l42 0c12 0 22-10 22-22 0-12-10-22-22-22z m-426 0l-42 0c-12 0-22 10-22 22 0 12 10 22 22 22l42 0c12 0 22-10 22-22 0-12-10-22-22-22z m55 137c-5 0-10 2-15 6l-29 30c-8 8-8 22 0 30 8 8 22 8 30 0l30-29c8-9 8-22 0-31-4-4-10-6-16-6z m274 0c-6 0-11 2-15 6-8 9-8 22 0 31l30 29c8 8 22 8 30 0 8-8 8-22 0-30l-30-30c-5-4-10-6-15-6z m-137 55c-12 0-22 10-22 22l0 42c0 12 10 22 22 22 12 0 22-10 22-22l0-42c0-12-10-22-22-22z"/>
<glyph glyph-name="tablet" unicode="&#117;" d="M384 22l-256 0c-35 0-64 28-64 64l0 340c0 36 29 64 64 64l256 0c35 0 64-28 64-64l0-341c0-35-29-63-64-63z m-256 426c-12 0-22-10-22-22l0-341c0-12 10-22 22-22l256 0c12 0 22 10 22 22l0 341c0 12-10 22-22 22z m128-342c-12 0-22 10-22 22 0 12 10 22 21 22 12 0 22-10 22-22 0-12-9-22-21-22z"/>
<glyph glyph-name="thumbs-down" unicode="&#118;" d="M278 22c-48 0-86 38-86 85l0 63-99 0c-3 0-7 0-11 1-16 3-31 12-42 25-10 14-14 31-11 48l29 192c5 31 33 54 64 54l298 0c35 0 66-26 70-61 0-1 0-2 0-3l0-150c0-1 0-2 0-3-4-35-35-61-71-61l-42 0-80-178c-4-8-11-12-19-12z m-64 192c11 0 21-10 21-22l0-86c0-18 12-35 30-40l77 173 0 209-220 0c-11 0-20-8-22-18l-29-192c-1-6 0-11 4-16 3-4 8-7 14-8 1 0 2 0 3 0z m170 42l36 0c14-1 26 10 28 23l0 146c-3 13-14 23-28 23 0 0 0 0 0 0l-36 0z"/>
<glyph glyph-name="table-2" unicode="&#119;" d="M448 42l-384 0c-12 0-22 10-22 22l0 384c0 12 10 22 22 22l384 0c12 0 22-10 22-22l0-384c0-12-10-22-22-22z m-170 44l149 0 0 84-149 0z m-192 0l149 0 0 84-149 0z m192 128l149 0 0 84-149 0z m-192 0l149 0 0 84-149 0z m192 128l149 0 0 84-149 0z m-192 0l149 0 0 84-149 0z"/>
<glyph glyph-name="thumbs-up" unicode="&#120;" d="M391 22c0 0-1 0-1 0l-304 0c-36 0-64 28-64 64l0 148c0 36 28 64 64 64l50 0 79 180c4 8 11 13 19 13 48 0 86-38 86-85l0-64 99 0c3 0 7 0 11-1 34-5 58-38 53-73l-29-192c-5-31-32-54-63-54z m-221 42l220 0c10 0 20 8 21 18l30 192c1 12-6 22-18 24-1 0-3 0-4 0l-121 0c-11 0-21 10-21 21l0 87c0 18-12 35-30 40l-77-173z m-84 192c-12 0-22-10-22-22l0-149c0-12 10-22 22-22l42 0 0 193z"/>
<glyph glyph-name="trash" unicode="&#121;" d="M448 406l-86 0 0 20c0 36-28 64-64 64l-85 0c-35 0-64-28-64-64l0-20-85 0c-12 0-22-10-22-22 0-12 10-22 22-22l22 0 0-276c0-36 28-64 64-64l212 0c36 0 64 28 66 64l0 276 20 0c12 0 22 10 22 22 0 12-10 22-22 22z m-256 20c0 12 10 22 22 22l84 0c12 0 22-10 22-22l0-20-128 0z m193-340c0-12-10-22-22-22l-213 0c-12 0-22 10-22 22l0 276 257 0z m-171 42c-12 0-22 10-22 22l0 128c0 11 10 21 22 21 11 0 21-10 21-21l0-128c-1-12-10-22-21-22z m84 0c-11 0-21 10-21 22l0 128c0 11 10 21 21 21 12 0 22-10 22-21l0-128c0-12-10-22-22-22z"/>
<glyph glyph-name="trending-down" unicode="&#122;" d="M470 256l0-128c0-12-10-22-22-22l-128 0c-12 0-22 10-22 22 0 12 10 22 22 22l77 0-130 129-70-70c-9-8-22-8-31 0l-121 122c-9 8-9 22 0 30 8 8 22 8 30 0l106-107 70 71c9 8 22 8 31 0l144-145 0 76c0 12 10 22 22 22 12 0 22-10 22-22z"/>
<glyph glyph-name="share" unicode="&#65;" d="M384 192c-24 0-45-10-60-25l-114 66c2 7 4 15 4 23 0 8-2 16-4 23l114 66c15-16 36-26 60-26 47 0 86 38 86 85 0 48-39 86-86 86-47 0-86-38-86-85 0-8 2-16 4-23l-114-66c-15 16-36 26-60 26-47 0-86-39-86-86 0-47 39-86 86-86 24 0 45 10 61 26l113-65c-2-8-3-16-3-23 0-48 38-86 86-86 47 0 85 38 85 85 0 47-39 85-86 85z m0 256c24 0 42-19 42-42 0-24-18-43-42-43-24 0-42 19-42 43 0 23 18 42 42 42z m-256-234c-24 0-42 18-42 42 0 24 18 42 42 42 24 0 42-18 42-42 0-24-18-42-42-42z m256-149c-24 0-42 18-42 42 0 7 1 13 4 18 1 2 2 5 3 7 8 10 21 18 35 18 24 0 42-19 42-43 0-24-18-42-42-42z m-35 67c0-1-1-3-1-4-1-1-2-2-2-3 1 2 2 5 3 7z"/>
<glyph glyph-name="search" unicode="&#66;" d="M463 79l-78 79c26 32 41 74 41 120 0 105-86 192-192 192-105 0-192-87-192-192 0-106 87-192 192-192 46 0 88 15 120 41l79-78c4-4 9-7 15-7 6 0 11 3 15 7 8 8 8 22 0 30z m-121 95c-2-1-3-2-4-4-27-26-63-42-104-42-81 0-149 67-149 149 0 82 67 149 149 149 83 0 150-66 150-148 0-41-16-78-42-104z m0-1c-2-1-2-2-3-3 0 1 1 2 1 2 0 1 1 1 2 1z"/>
<glyph glyph-name="rewind" unicode="&#67;" d="M244 425c-7 4-16 3-22-3l-192-149c-5-4-8-10-8-17 0-7 3-13 8-17l191-149c4-3 9-4 13-4 4 0 7 0 10 3 7 3 12 10 12 19l0 298c0 8-5 15-12 19z m-31-274l-136 105 136 105z m266 274c-7 4-16 3-23-3l-192-149c-5-4-8-10-8-17 0-7 3-13 8-17l192-149c4-3 9-4 14-4 3 0 6 0 9 3 7 3 11 10 11 19l0 298c0 8-4 15-11 19z m-31-274l-136 105 136 105z"/>
<glyph glyph-name="refresh-cw" unicode="&#68;" d="M53 22c-12 0-21 9-21 21l0 128c0 12 9 22 21 22l128 0c12 0 22-10 22-22 0-12-10-21-22-21l-84 0c33-50 89-82 149-85 105-6 196 76 201 182 1 12 11 21 23 20 12-1 21-11 20-23-6-129-117-229-246-222-66 4-128 35-169 86l0-66c0-11-10-20-22-20z m-11 223c0 0 0 0-1 0-11 1-21 10-20 22 6 130 116 231 245 225 67-3 129-35 171-86l0 64c0 11 10 21 22 21 12 0 21-10 21-21l0-128c0-12-9-22-21-22l-128 0c-12 0-22 10-22 22 0 11 10 21 22 21l85 0c-34 51-90 84-152 87-51 2-100-16-138-51-38-34-60-82-62-133-1-12-10-21-22-21z"/>
<glyph glyph-name="radio" unicode="&#69;" d="M256 192c-35 0-64 29-64 64 0 35 29 64 64 64 35 0 64-29 64-64 0-35-29-64-64-64z m0 86c-12 0-22-10-22-22 0-12 10-22 22-22 12 0 22 10 22 22 0 12-10 22-22 22z m151-194c-6 0-11 2-15 6-8 8-8 22 0 30 75 75 75 197 0 272-8 8-8 22 0 30 8 8 22 8 30 0 92-92 92-240 0-332-4-4-10-6-15-6z m-302 0c-6 0-11 2-15 6-92 92-92 240 0 332 8 8 22 8 30 0 9-8 9-22 0-30-74-75-74-197 0-272 9-8 9-22 0-30-4-4-9-6-15-6z m60 60c-5 0-10 2-14 7-59 58-59 153 0 210l30-30c-42-41-42-109 0-151 8-8 8-22 0-30-4-4-10-6-16-6z m196 7l-30 30c21 20 31 47 31 76 0 28-11 55-31 75-8 8-8 22 0 30 8 8 22 8 30 0 29-28 44-66 45-105 0-41-16-78-45-106z"/>
<glyph glyph-name="play-circle" unicode="&#70;" d="M256 22c-130 0-234 104-234 234 0 130 104 234 234 234 130 0 234-104 234-234 0-130-104-234-234-234z m0 426c-106 0-192-86-192-192 0-106 86-192 192-192 106 0 192 86 192 192 0 106-86 192-192 192z m-42-298c-4 0-7 1-11 2-7 4-11 11-11 19l0 171c0 7 4 14 11 18 7 4 16 4 22-1l128-85c6-4 10-11 10-18 0-7-4-14-10-18l-128-85c-3-2-7-3-11-3z m20 152l0-92 69 46z"/>
<glyph glyph-name="play" unicode="&#71;" d="M106 42c-3 0-7 2-10 3-6 4-11 11-11 19l0 384c0 8 4 15 11 19 7 4 16 4 22-1l298-192c6-4 10-11 10-18 0-7-4-14-10-18l-298-192c-3-2-7-4-12-4z m22 367l0-306 238 153z"/>
<glyph glyph-name="pie-chart" unicode="&#72;" d="M256 22c-31 0-62 6-91 18-119 50-176 188-125 308 23 55 67 99 122 123 11 5 24 0 28-11 5-11 0-24-11-28-45-20-81-56-100-102-41-97 5-210 102-251 98-42 211 4 252 102 4 10 17 16 28 11 11-5 16-17 11-28-25-58-70-103-128-126-28-11-58-16-88-16z m214 212l-214 0c-12 0-22 10-22 22l0 214c0 11 10 21 22 21 130 0 234-105 234-234 0-13-9-23-20-23z m-192 44l169 0c-10 89-80 159-169 169z"/>
<glyph glyph-name="phone" unicode="&#73;" d="M426 23c-2 0-4 0-5 1-69 7-136 30-194 68-53 34-100 81-134 135-37 58-61 125-68 194-2 17 3 34 14 47 11 13 26 21 43 22 2 0 4 1 6 1l64 0c0 0 1 0 1 0 31 0 58-24 63-55 2-19 7-38 13-56 9-23 3-49-14-67l-15-16c25-39 58-72 97-97l16 15c18 17 44 23 67 14 18-6 37-11 56-13 32-5 56-33 55-65l0-64c0-17-7-33-18-45-12-12-29-19-47-19 1 0 1 0 0 0z m-274 425l-64 0c-1 0-1 0-2 0-6-1-11-3-15-8-3-4-5-9-5-15 7-62 28-123 62-175 31-49 73-91 121-121 54-35 114-57 176-63 0 0 1 0 1 0 6 0 12 2 15 6 4 4 6 9 6 15l0 64c0 0 0 1 0 1 1 10-7 20-18 21-22 3-43 8-64 16-8 3-17 1-23-5l-27-27c-7-6-18-8-26-3-57 32-104 79-136 136-5 8-3 19 4 25l27 28c5 5 7 14 4 22-7 21-13 43-15 65-1 10-10 18-21 18z"/>
<glyph glyph-name="pause-circle" unicode="&#74;" d="M256 22c-130 0-234 104-234 234 0 130 104 234 234 234 130 0 234-104 234-234 0-130-104-234-234-234z m0 426c-106 0-192-86-192-192 0-106 86-192 192-192 106 0 192 86 192 192 0 106-86 192-192 192z m-42-278c-12 0-22 10-22 22l0 128c0 12 10 22 22 22 11 0 21-10 21-22l0-128c-1-12-10-22-21-22z m84 0c-11 0-21 10-21 22l0 128c0 12 10 22 21 22 12 0 22-10 22-22l0-128c0-12-10-22-22-22z"/>
<glyph glyph-name="pause" unicode="&#75;" d="M214 64l-86 0c-12 0-22 10-22 22l0 340c0 12 10 22 22 22l86 0c11 0 21-10 21-22l0-341c-1-11-10-21-21-21z m-64 42l42 0 0 300-42 0z m234-42l-86 0c-11 0-21 10-21 22l0 340c0 12 10 22 21 22l86 0c12 0 22-10 22-22l0-341c0-11-10-21-22-21z m-64 42l42 0 0 300-42 0z"/>
<glyph glyph-name="music" unicode="&#76;" d="M448 448c0 6-3 12-8 16-5 4-11 6-17 5l-256-43c-10-1-18-10-18-20l0-200c-10 5-20 8-32 8-41 0-75-34-75-75 0-42 34-75 75-75 42 0 75 33 75 75 0 3 0 6-1 8 0 1 0 1 0 3l0 238 214 35 0-174c-10 4-20 7-32 7-41 0-75-33-75-75 0-41 34-75 75-75 42 0 75 34 75 75 0 3 0 5-1 7 0 1 1 3 1 4z m-331-341c-17 0-31 14-31 32 0 17 14 31 31 31 18 0 33-14 33-31 0-18-15-32-33-32z m256 43c-17 0-31 14-31 32 0 17 14 32 31 32 18 0 32-15 32-32 0-18-14-32-32-32z"/>
<glyph glyph-name="more-horizontal" unicode="&#77;" d="M256 214c-24 0-42 18-42 42 0 24 18 42 42 42 24 0 42-18 42-42 0-24-18-42-42-42z m150 0c-24 0-43 18-43 42 0 24 19 42 43 42 23 0 42-18 42-42 0-24-19-42-42-42z m-300 0c-23 0-42 18-42 42 0 24 19 42 42 42 24 0 43-18 43-42 0-24-19-42-43-42z"/>
<glyph glyph-name="link" unicode="&#78;" d="M299 170c-39 0-77 18-103 52-7 9-5 23 4 29 9 8 23 6 30-4 28-38 82-45 119-17 3 2 6 5 9 8l65 64c15 16 24 38 23 60 0 24-9 45-26 60-33 33-85 33-118 0l-37-36c-8-8-22-8-30 0-8 8-8 22 0 30l37 37c50 48 128 48 178 0 25-24 38-56 39-90 0-34-12-67-36-91l-64-64c-4-4-9-8-14-12-23-17-49-26-76-26z m-148-147c-32 0-64 12-89 35-51 50-53 131-4 182l65 64c4 4 9 8 14 12 27 20 61 29 94 24 34-5 64-23 85-50 7-9 5-23-4-30-9-7-23-5-30 4-14 19-34 30-56 33-23 4-45-2-64-15-3-3-6-6-9-9l-64-63c-32-34-31-88 3-120 33-33 85-33 118 0l37 36c8 8 22 8 30 0 8-8 8-22 0-30l-36-37c-26-24-59-36-90-36z"/>
<glyph glyph-name="loader" unicode="&#79;" d="M256 362c-12 0-22 10-22 22l0 86c0 11 10 21 22 21 12 0 22-10 22-21l0-86c0-12-10-22-22-22z m0-340c-12 0-22 9-22 21l0 85c0 12 10 22 22 22 12 0 22-10 22-22l0-86c0-11-10-20-22-20z m-91 303c-5 0-10 2-14 6l-61 61c-8 8-8 22 0 30 8 8 22 8 30 0l61-61c8-8 8-22 0-30-4-4-10-6-16-6z m242-241c-6 0-11 2-15 6l-61 61c-8 8-8 22 0 30 8 8 22 8 30 0l61-61c8-8 8-22 0-30-4-4-10-6-15-6z m-279 150l-86 0c-11 0-21 10-21 22 0 12 10 22 21 22l86 0c12 0 22-10 22-22 0-12-10-22-22-22z m342 0l-86 0c-12 0-22 10-22 22 0 12 10 22 22 22l86 0c11 0 21-10 21-22-1-12-10-22-21-22z m-365-150c-6 0-11 2-15 6-8 8-8 22 0 30l61 61c8 8 22 8 30 0 8-8 8-22 0-30l-61-61c-4-4-9-6-15-6z m242 241c-6 0-11 2-15 6-8 8-8 22 0 30l60 61c8 8 22 8 30 0 9-8 9-22 0-30l-61-61c-4-4-9-6-14-6z"/>
<glyph glyph-name="lock" unicode="&#80;" d="M405 298l-21 0 0 64c0 71-57 128-128 128-71 0-128-57-128-128l0-64-22 0c-35 0-64-28-64-64l0-148c0-36 29-64 64-64l300 0c35 0 64 28 63 63l0 149c0 36-29 64-64 64z m-235 64c0 48 38 86 85 86 48 0 86-38 86-86l0-64-171 0z m256-277c0-12-9-22-21-22l-299 0c-11 0-21 10-21 22l0 149c0 12 10 22 21 22l299 0c12 0 21-10 21-22z m-273 171c-1-1-3-1-5-1-1 0-3 0-4 1z"/>
<glyph glyph-name="manostop" unicode="&#81;" d="M444 406c-8 9-19 16-31 18-6 2-13 2-20 0 0 12-4 22-12 31-7 9-19 17-31 19-8 1-17 1-25-2-4 8-11 15-19 20-11 6-23 9-36 6-12-2-23-9-31-19-7-9-11-20-12-30-6 1-13 1-20 0-11-3-22-10-30-19-8-10-12-22-11-34l0-155-13 10c-13 10-30 15-46 12-16-2-31-12-40-25-8-12-11-25-10-38 1-14 6-26 15-36l89-104c26-30 64-48 105-48l57 0c35 0 69 14 94 39 25 25 39 59 39 94l0 226c0 12-4 25-12 35z m-121-351l-57 0c-28 0-55 13-73 34l-90 105c-3 3-4 7-4 11 0 5 2 9 5 12 3 3 7 4 12 4 3 0 7-1 10-3l35-29c4-3 9-4 14-4l12 0c6 0 11 2 15 6 4 4 6 9 6 15l0 192c0 3 2 6 4 8 4 2 7 2 10 0 3-2 5-5 5-8l0-130c0-11 10-21 21-21 12 0 22 10 22 21l0 179c0 4 2 7 4 9 4 1 7 1 10 0 3-2 5-5 5-9l0-179c0-11 9-21 21-21 12 0 22 10 22 21l0 154c0 4 1 7 4 9 3 1 7 1 10 0 3-2 5-5 5-9l0-154c0-11 9-21 21-21 12 0 22 10 22 21l0 105c0 4 2 7 4 8 3 2 7 2 10 0 3-1 5-5 5-8l0-228c0-24-10-47-26-64-17-16-40-26-64-26z"/>
<glyph glyph-name="map-marker-2" unicode="&#82;" d="M256 214c-47 0-86 38-86 85 0 47 39 85 86 85 47 0 86-38 86-86 0-47-39-84-86-84z m0 128c-24 0-42-19-42-43 0-24 18-43 42-43 24 0 42 19 42 42 0 24-18 44-42 44z m0-314c-5 0-10 2-14 5-120 108-178 195-178 265 0 106 86 192 192 192 106 0 192-86 192-192 0-71-60-160-178-265-4-3-9-5-14-5z m0 420c-82 0-150-67-150-150 0-54 51-128 150-220 96 88 149 166 149 220 1 83-67 150-149 150z"/>
<glyph glyph-name="mas18" unicode="&#83;" d="M256 22c-130 0-234 104-234 234 0 130 104 234 234 234 130 0 234-104 234-234 0-130-104-234-234-234z m0 426c-106 0-192-86-192-192 0-106 86-192 192-192 106 0 192 86 192 192 0 106-86 192-192 192z m-26-239c0 26 12 42 34 51-16 10-27 23-27 45 0 33 30 57 74 57 44 0 74-24 74-57 0-22-10-36-28-45 21-12 34-25 34-50 0-39-34-62-81-62-47 0-80 23-80 61z m118 2c0 17-16 27-36 27-21 0-37-10-37-27 0-14 13-26 37-26 23 0 36 12 36 26z m-6 90c0 12-12 24-31 24-18 0-30-12-30-24 0-15 12-27 30-27 19 0 31 12 31 27z m-125 35l0-160c0-15-11-27-24-27-14 0-25 12-25 27l0 105-7-8c-10-10-26-11-36-2-9 10-8 26 2 36l50 50c4 3 9 5 15 5 14 1 25-11 25-26z"/>
<glyph glyph-name="maximize" unicode="&#84;" d="M192 42l-128 0c-12 0-22 10-22 22l0 128c0 12 10 22 22 22 12 0 22-10 22-22l0-76 113 113c8 8 22 8 30 0 8-8 8-22 0-30l-113-113 76 0c12 0 22-10 22-22 0-12-10-22-22-22z m106 236c-5 0-10 2-14 6-9 8-9 22 0 30l113 113-77 0c-12 0-22 10-22 22 0 11 10 21 22 21l128 0c12 0 22-10 22-21l0-128c0-12-10-22-22-22-12 0-22 10-22 22l0 75-112-112c-4-4-10-6-16-6z"/>
<glyph glyph-name="message-square" unicode="&#85;" d="M64 42c-3 0-6 1-8 2-8 3-14 11-14 19l0 343c0 35 29 64 64 64l299 0c35 0 64-29 64-64l0-214c0-35-29-64-64-64l-247 0-79-79c-4-4-9-7-15-7z m42 384c-11 0-21-9-21-21l0-290 49 49c4 4 9 6 15 6l256 0c12 0 21 10 21 22l0 214c0 11-9 21-21 21l-299 0z"/>
<glyph glyph-name="mic" unicode="&#86;" d="M256 192c-47 0-86 34-86 77l0 145c0 42 39 76 86 76 47 0 86-34 86-76l0-145c0-43-39-77-86-77z m0 256c-24 0-42-15-42-34l0-145c0-19 18-35 42-35 24 0 42 16 42 35l0 145c0 19-18 34-42 34z m86-426l-172 0c-11 0-21 9-21 21 0 12 10 22 21 22l64 0 0 44c-83 10-149 82-149 169l0 22c0 11 10 21 21 21 12 0 22-10 22-21l0-22c0-71 57-128 128-128 71 0 128 57 128 128l0 22c0 11 10 21 22 21 11 0 21-10 21-21l0-22c0-87-65-159-149-169l0-44 64 0c11 0 21-10 21-22 0-12-10-21-21-21z"/>
<glyph glyph-name="message-circle" unicode="&#87;" d="M64 42c-6 0-11 3-15 7-5 5-8 14-5 22l37 113c-11 26-17 55-17 83 0 77 43 146 112 181 28 14 59 22 90 22 0 0 1 0 1 0l11 0c0 0 1 0 1 0 102-6 185-88 191-191 0-1 0-1 0-1l0-11c0-31-8-63-22-91-34-69-104-112-181-112 0 0-1 0-1 0-28 0-56 6-82 17l-113-37c-2-1-5-2-7-2z m202 384c-24 0-49-5-71-16-55-28-89-82-89-143 0-25 6-50 17-72 3-5 3-11 1-16l-27-81 81 27c6 1 11 1 17-1 22-11 46-17 71-17 0 0 0 0 0 0 61 0 116 34 144 89 11 22 16 46 16 71l0 11c-4 79-69 144-150 148l-10 0c1 0 0 0 0 0z"/>
<glyph glyph-name="minimize" unicode="&#88;" d="M64 42c-6 0-11 3-15 7-8 8-8 22 0 30l113 113-76 0c-12 0-22 10-22 22 0 11 10 21 22 21l128 0c11 0 21-10 21-21l0-128c0-12-10-22-21-22-12 0-22 10-22 22l0 76-113-113c-4-4-9-7-15-7z m362 236l-128 0c-11 0-21 9-21 21l0 128c0 12 10 22 21 22 12 0 22-10 22-22l0-76 113 112c8 8 22 8 30 0 9-8 9-22 0-30l-113-113 76 0c12 0 22-10 22-22 0-11-10-20-22-20z"/>
<glyph glyph-name="monitor" unicode="&#89;" d="M427 470l-341 0c-36 0-64-29-64-64l0-214c0-35 28-64 64-64l148 0 0-42-64 0c-11 0-21-10-21-22 0-12 10-22 21-22l172 0c11 0 20 10 20 22 0 12-9 22-21 22l-63 0 0 42 148 0c36 0 64 29 65 64l0 214c0 35-29 64-64 64z m22-279c0-11-10-21-22-21l-341 0c-12 0-22 10-22 21l0 214c0 12 10 21 22 21l0 1 341 0c12 0 22-10 22-21z m-186-21l-13 0c2 0 4 1 7 1 2 0 4-1 6-1z"/>
<glyph glyph-name="moon" unicode="&#90;" d="M257 44c-7 0-13 0-20 1-57 5-108 32-144 76-37 44-54 99-48 155 9 103 90 184 193 194 8 0 16-4 20-11 4-7 4-17-1-23-42-57-30-138 26-179 46-34 107-34 152 0 7 5 16 5 23 1 7-4 12-12 11-20-10-112-103-194-212-194z m-58 373c-61-22-106-78-112-145-4-45 10-89 39-125 29-35 70-56 115-60 79-7 151 40 176 112-52-20-112-12-159 23-37 27-60 67-68 112-4 28-1 57 9 83z"/>
<glyph glyph-name="line-chart-2" unicode="&#48;" d="M448 42l-384 0c-12 0-22 10-22 22l0 384c0 12 10 22 22 22 12 0 22-10 22-22l0-362 362 0c12 0 22-10 22-22 0-12-10-22-22-22z m-49 143c-6 0-11 2-16 7l-63 66-42-43c-9-8-22-8-31 0l-113 111c-8 8-9 22 0 30 8 9 22 9 30 1l98-96 42 42c4 4 9 6 15 6 6 0 12-2 16-6l79-81c8-8 8-22-1-31-3-4-9-6-14-6z"/>
<glyph glyph-name="line-chart" unicode="&#49;" d="M448 42l-384 0c-12 0-22 10-22 22l0 384c0 12 10 22 22 22 12 0 22-10 22-22l0-362 362 0c12 0 22-10 22-22 0-12-10-22-22-22z m-298 143c-6 0-11 2-15 6-9 9-9 23 0 31l81 81c8 8 21 8 29 0l45-43 94 96c8 8 22 9 30 0 8-8 9-21 1-30l-110-110c-8-9-21-9-30-1l-45 43-66-66c-4-4-9-7-14-7z"/>
<glyph glyph-name="info" unicode="&#50;" d="M256 22c-130 0-234 104-234 234 0 130 104 234 234 234 130 0 234-104 234-234 0-130-104-234-234-234z m0 426c-106 0-192-86-192-192 0-106 86-192 192-192 106 0 192 86 192 192 0 106-86 192-192 192z m0-298c-12 0-22 9-22 21l0 85c0 12 10 22 22 22 12 0 22-10 22-22l0-86c0-11-10-20-22-20z m0 170c-12 0-22 10-22 22 0 11 10 21 21 21 12 0 22-10 22-21 0-12-9-22-21-22z"/>
<glyph glyph-name="home-2" unicode="&#51;" d="M187 22c2-1 3-1 5-1 2 0 3 0 5 1z m296 280l-213 183c-8 7-20 7-28 0l-213-183c-9-8-10-21-2-30 7-9 21-10 30-2l7 6 0-190c0-36 29-64 64-64l256 0c35 0 64 28 65 64l0 189 7-5c4-4 8-5 14-5 5 0 11 2 15 7 8 9 7 22-2 30z m-269-238l0 170 84 0 0-170z m192 22c0-12-10-22-21-22l-43 0 0 192c0 12-10 22-22 22l-128 0c-12 0-22-10-22-22l0-192-41 0c-12 0-22 10-22 22l0 227 149 128 150-129z"/>
<glyph glyph-name="heart" unicode="&#52;" d="M256 38c-6 0-11 2-15 6l-189 188c-54 55-54 143 0 197 54 54 143 54 196 0l8-8 7 7c0 0 0 0 1 1 53 54 142 54 196 0 26-26 40-61 40-98 0-37-14-72-40-98l-189-189c-4-4-9-6-15-6z m-105 388c-25 0-50-9-69-28-37-37-37-98 0-135l174-174 174 174c17 18 28 42 28 68 0 25-10 49-28 67-38 38-99 38-136 0 0 0 0 0 0 0l-23-23c-8-8-22-8-30 0l-22 23c-19 19-44 28-68 28z"/>
<glyph glyph-name="image" unicode="&#53;" d="M405 470l-299 0c-35 0-64-29-64-64l0-300c0-35 29-64 64-64l300 0c35 0 64 29 63 65l0 299c0 35-29 64-64 64z m21-364c0-11-9-21-21-21l-287 0 222 185 80-82c2-2 4-4 6-5z m0 136l-70 72c-7 8-20 9-28 1l-243-202 0 292c0 12 10 21 21 21l0 1 299 0c12 0 21-10 21-21z m-245 142c-29 0-53-24-53-53 0-29 24-53 53-53 30 0 53 24 53 53 0 29-24 53-53 53z m0-64c-6 0-11 5-11 11 0 6 6 11 11 11 6 0 11-5 11-11 0-6-5-11-11-11z"/>
<glyph glyph-name="hash" unicode="&#54;" d="M427 214l-91 0 10 84 80 0c12 0 23 10 23 22 0 12-10 22-22 22l-77 0 12 103c1 12-7 22-19 24-12 1-22-7-24-19l-12-108-84 0 11 103c1 12-7 22-19 24-12 1-22-7-24-19l-12-108-93 0c-12 0-22-10-22-22 0-12 10-22 22-22l89 0-10-84-79 0c-12 0-22-10-22-22 0-12 10-22 22-22l75 0-12-104c-1-12 7-22 19-24l2 0c11 0 20 9 21 19l13 109 85 0-12-104c-1-12 7-22 19-24l2 0c11 0 20 9 21 19l13 109 94 0c12 0 23 10 23 22 0 12-10 22-22 22z m-134 0l-85 0 10 84 85 0z"/>
<glyph glyph-name="headphones" unicode="&#55;" d="M256 470c-118 0-214-96-214-214l0-150c0-35 29-64 64-64l22 0c35 0 64 29 64 65l0 64c0 35-29 64-64 64l-42 0 0 21c0 94 76 170 170 170 94 0 170-76 170-170l0-22-42 0c-35 0-64-28-64-64l0-64c0-35 29-64 64-64l22 0c35 0 64 29 64 64l0 150c0 118-96 214-214 214z m-128-278c12 0 22-10 22-22l0-64c0-11-10-21-22-21l-21 0c-12 0-21 10-21 21l0 86z m299-86c0-11-10-21-21-21l-22 0c-12 0-22 10-22 21l0 64c0 12 10 22 22 22l43 0z m0 86l0-69c-1 2-1 3-1 5l0 64z"/>
<glyph glyph-name="grid" unicode="&#56;" d="M214 278l-150 0c-12 0-22 9-22 21l0 149c0 12 10 22 22 22l150 0c11 0 21-10 21-22l0-150c-1-11-10-20-21-20z m-128 42l106 0 0 106-106 0z m362-42l-150 0c-11 0-21 9-21 21l0 149c0 12 10 22 21 22l150 0c12 0 22-10 22-22l0-150c0-11-10-20-22-20z m-128 42l106 0 0 106-106 0z m128-278l-150 0c-11 0-21 10-21 22l0 150c0 11 10 21 21 21l150 0c12 0 22-10 22-21l0-150c0-12-10-22-22-22z m-128 44l106 0 0 106-106 0z m-106-44l-150 0c-12 0-22 10-22 22l0 150c0 11 10 21 22 21l150 0c11 0 21-10 21-21l0-150c-1-12-10-22-21-22z m-128 44l106 0 0 106-106 0z"/>
<glyph glyph-name="flag" unicode="&#57;" d="M435 468c-9 4-18 2-23-5-3-2-22-15-71-15-28 0-52 10-77 20-28 11-57 23-94 23-69 0-95-23-100-28-4-3-6-9-6-14l0-406c0-12 10-21 22-21 11 0 20 9 21 20l0 139c9 5 29 12 64 12 28 0 52-10 77-20 28-12 57-23 94-23 69 0 95 23 100 27 4 4 6 9 6 15l0 256c0 9-5 17-13 20z m-30-265c-9-4-29-12-64-12-28 0-52 10-77 20-28 12-57 23-94 23-27 0-48-3-64-7l0 210c10 5 30 12 64 12 28 0 52-10 78-20 28-12 57-23 93-23 28 0 49 3 64 8z"/>
<glyph glyph-name="film" unicode="&#33;" d="M423 490l-334 0c-37 0-67-30-67-67l0-333c0-38 30-68 67-68l334 0c37 0 67 30 68 67l0 334c0 37-31 67-68 67z m-295-426l-39 0c-14 0-25 11-25 25l0 39 64 0z m0 107l-64 0 0 63 64 0z m0 107l-64 0 0 64 64 0z m0 106l-64 0 0 39c0 14 11 25 25 25l39 0z m213-320l-170 0 0 170 170 0z m0 214l-170 0 0 170 170 0z m107-189c0-14-11-25-25-25l-39 0 0 64 64 0z m0 82l-64 0 0 63 64 0z m0 107l-64 0 0 64 64 0z m0 107l-64 0 0 63 39 0c14 0 25-11 25-25z m-294 105l-9 0c1 1 3 1 5 1 1 0 3 0 4-1z m213 0l-9 0c1 1 3 1 4 1 2 0 4 0 5-1z m-345-229l0-10c-1 2-1 3-1 5 0 2 0 3 1 5z m0 107l0-10c-1 2-1 3-1 5 0 2 0 3 1 5z m0-214l0-9c-1 1-1 3-1 5 0 1 0 3 1 4z"/>
<glyph glyph-name="file-x-2" unicode="&#34;" d="M441 356l-128 128c-3 4-9 6-15 6l-170 0c-35 0-64-28-64-64l0-340c0-36 29-64 64-64l128 0c12 0 22 8 22 20 0 12-10 21-22 21l-128 0c-12 0-22 10-22 22l0 341c0 12 10 22 22 22l149 0 0-106c0-12 10-22 21-22l106 0 0-44c0-12 10-22 22-22 12 0 21 10 21 22l0 66c0 5-2 10-6 14z m-121 6l0 55 55-55-55 0z m124-264c9-8 9-22 0-30-4-5-9-7-15-7-6 0-11 2-15 7l-30 30-30-30c-8-9-22-9-30 0-9 8-9 22 0 30l30 30-30 30c-9 8-9 22 0 30 8 9 22 9 30 0l30-30 30 30c8 9 22 9 30 0 9-8 9-22 0-30l-30-30z"/>
<glyph glyph-name="fast-forward" unicode="&#35;" d="M248 272l-192 150c-7 5-16 6-23 2-7-3-11-10-11-18l0-300c0-7 4-15 11-18 3-2 6-2 9-2 5 0 10 1 14 4l192 149c5 4 8 10 8 16 0 7-3 13-8 17z m-184-122l0 211 136-105z m419 122l-192 150c-7 5-16 6-23 2-7-3-11-10-11-18l0-300c0-7 4-15 11-18 3-2 6-2 10-2 4 0 9 1 12 4l193 149c5 4 8 10 8 16 0 7-3 13-8 17z m-185-122l0 211 137-105z"/>
<glyph glyph-name="calendar" unicode="&#36;" d="M405 448l-42 0 0 22c0 11-10 21-21 21-12 0-22-10-22-21l0-22-128 0 0 22c0 11-10 21-22 21-11 0-21-10-21-21l0-22-43 0c-35 0-64-29-64-64l0-298c0-36 29-64 64-64l300 0c35 0 64 28 63 64l0 298c0 35-29 64-64 64z m21-362c0-12-9-22-21-22l-299 0c-11 0-21 10-21 22l0 192 341 0z m0 235l-341 0 0 63c0 12 10 22 21 22l43 0 0-22c0-12 10-22 21-22 12 0 22 10 22 22l0 22 128 0 0-22c0-12 10-22 22-22 11 0 20 10 21 22l0 22 42 0c12 0 21-10 21-22z m44-22c0-2 0-3-1-5l0 10c1-2 1-3 1-5z"/>
<glyph glyph-name="camera" unicode="&#37;" d="M426 42l-340 0c-36 0-64 29-64 64l0 236c0 35 28 64 64 64l52 0 36 54c4 6 11 10 18 10l128 0c7 0 14-4 18-10l36-54 53 0c35 0 64-29 64-64l0-235c-1-36-29-65-65-65z m-340 320c-12 0-22-9-22-21l0-235c0-11 10-21 22-21l341 0c12 0 22 10 22 21l0 236c0 11-10 21-22 21l-65 0c-7 0-13 4-17 10l-37 54-105 0-36-54c-4-6-11-10-18-10l-63 0z m170-234c-59 0-106 48-106 106 0 59 47 107 106 107 59 0 106-48 106-107 0-58-47-106-106-106z m0 170c-35 0-64-28-64-64 0-35 29-64 64-64 35 0 64 29 64 64 0 36-29 64-64 64z"/>
<glyph glyph-name="campana" unicode="&#38;" d="M256 22c-11 0-22 2-32 8-10 6-18 14-23 23-6 10-3 23 7 29 11 7 23 3 30-7 2-3 4-6 7-8 5-3 11-4 17-2 5 2 10 5 12 10 7 10 19 14 30 7 10-6 13-19 7-29-11-20-33-31-55-31z m214 106l-428 0c-11 0-21 10-21 22 0 11 10 21 21 21 24 0 43 19 43 43l0 106c0 94 77 170 170 170 94 0 171-76 171-170l0-106c0-24 19-43 42-43 12 0 22-10 22-21 0-12-9-22-20-22z m-353 42l279 0c-7 13-11 28-11 43l0 107c0 71-58 128-128 128-71 0-128-57-128-128l0-106c-1-16-5-31-12-44z"/>
<glyph glyph-name="cast" unicode="&#39;" d="M126 64c-10 0-19 7-21 17-7 34-33 60-67 66-11 3-19 14-16 26 2 11 13 19 25 16 50-10 90-49 100-99 3-12-5-23-16-25-2-1-4-1-5-1z m86 0c-10 0-19 8-21 19-9 80-71 142-151 151-11 2-20 12-18 24 1 11 11 20 23 18 100-11 177-88 188-188 2-12-7-22-18-23-1-1-2-1-3-1z m214 0l-128 0c-11 0-21 10-21 22 0 11 10 21 21 21l128 0c12 0 22 10 22 22l0 255c0 12-10 22-22 22l-340 0c-12 0-22-10-22-22l0-42c0-12-10-22-22-22-11 0-21 10-21 22l0 42c0 35 29 64 64 64l341 0c36 0 64-29 64-64l0-256c0-35-28-64-64-64z m-383 0c-12 0-21 10-21 22 0 11 9 21 20 21 12 0 22-10 22-21 0-12-9-22-21-22z"/>
<glyph glyph-name="clipboard" unicode="&#40;" d="M384 449l-22 0c0 23-19 41-42 41l-128 0c-24 0-42-19-42-42l-22 0c-35 0-64-29-64-64l0-298c0-36 29-64 64-64l256 0c35 0 64 28 64 64l0 299c0 35-29 64-64 64z m-192-1l128 0 0-42-128 0z m214-363c0-12-10-22-22-22l-256 0c-12 0-22 10-22 22l0 298c0 12 10 22 22 22l22 0c0-24 18-43 42-43l128 0c24 0 42 20 42 43l0 1 22 0c12 0 22-10 22-22z"/>
<glyph glyph-name="copy" unicode="&#41;" d="M426 22l-192 0c-35 0-64 28-64 64l0 192c0 35 29 64 64 64l192 0c36 0 64-29 64-64l0-192c0-36-28-64-64-64z m-192 276c-11 0-21-9-21-21l0-192c0-12 10-22 21-22l192 0c12 0 22 10 22 22l0 193c0 11-10 21-22 21l-192 0z m-128-128l-21 0c-35 0-64 29-64 64l0 192c0 36 29 64 64 64l192 0c35 0 64-28 64-64l0-21c0-12-10-22-22-22-11 0-21 10-21 22l0 21c0 12-10 22-22 22l-190 0c-12 0-22-10-22-22l0-192c0-11 10-21 22-21l21 0c12 0 22-10 22-22 0-11-11-21-23-21z"/>
<glyph glyph-name="credit-card" unicode="&#42;" d="M21 309c0-1 0-3 1-4l0 9c-1-2-1-3-1-5z m144-102c-4 4-9 7-15 7-12 0-22-10-22-22 0-12 10-22 22-22 11 0 21 10 21 22 0 6-3 11-6 15z m262 241l-341 0c-36 0-64-29-64-64l0-256c0-35 28-64 64-64l340 0c36 0 64 29 65 64l0 256c0 35-29 64-64 64z m22-320c0-12-10-22-22-22l-341 0c-12 0-22 10-22 22l0 160 385 0z m0 203l-385 0 0 53c0 12 10 22 22 22l341 0c12 0 22-10 22-22z"/>
<glyph glyph-name="edit" unicode="&#43;" d="M384 22l-298 0c-36 0-64 28-64 64l0 298c0 35 28 64 64 64l113 0c12 0 22-10 22-22 0-11-10-21-22-21l-113 0c-12 0-22-10-22-22l0-298c0-12 10-22 22-22l298 0c12 0 22 10 22 22l0 114c0 12 9 22 21 22 12 0 22-10 22-22l0-113c-1-36-30-64-65-64z m-128 128l-86 0c-11 0-21 9-21 21l0 85c0 6 2 11 6 15l214 213c8 9 22 9 30 0l86-85c4-4 6-9 6-15 0-6-2-11-6-15l-214-213c-4-4-9-6-15-6z m-64 42l55 0 192 192-55 55-192-192z"/>
<glyph glyph-name="elperfil-iso" unicode="&#44;" d="M302 247l0 165c0 55-45 100-100 100l-120 0 0-512 74 0 0 146 45 0c56 0 101 45 101 101z m-146-27l0 219 34 0c21 0 39-18 39-39l0-141c0-22-18-39-39-39z m184 273l71 19 19-71-71-19z"/>
<glyph glyph-name="elperfil-logo" unicode="&#45;" d="M47 175l0 23-24 0 0 23 24 0 0 23-24 0 0 70 24 0 0 23-47 0 0-162z m58 0l0 23-23 0 0 139-23 0 0-162z m113 78l0 52c0 18-14 32-32 32l-38 0 0-162 24 0 0 46 14 0c18 0 32 15 32 32z m-46-9l0 70 11 0c6 0 12-6 12-12l0-45c0-7-6-13-12-13z m105-69l0 23-23 0 0 23 23 0 0 23-23 0 0 70 23 0 0 23-46 0 0-162z m178 140l-23-6-6 22 23 6z m-25-14l23 0 0-126-23 0z m82-126l0 23-23 0 0 139-24 0 0-162z m-94 162l0-23-23 0 0-70 23 0 0-23-23 0 0-46-24 0 0 162z m-129 0l0-162 23 0 0 47 11 0c7 0 12-6 12-13l0-33 23 0 0 38c0 11-9 20-20 20 11 0 20 9 20 20l0 51c0 18-14 32-31 32l-38 0z m24-93l0 70 11 0c6 0 12-6 12-12l0-45c0-7-6-13-12-13z"/>
<glyph glyph-name="elperfil-punto" unicode="&#46;" d="M1 403l402 108 108-402-402-108z"/>
<glyph glyph-name="external-link" unicode="&#47;" d="M342 42l-236 0c-35 0-64 29-64 64l0 236c0 35 29 64 64 64l107 0c12 0 21-10 21-22 0-12-9-22-21-22l-107 0c-11 0-21-9-21-21l0-235c0-11 10-21 21-21l235 0c12 0 21 10 21 21l0 108c0 11 10 21 22 21 12 0 22-10 22-21l0-107c0-36-29-65-64-65z m-128 150c-6 0-11 2-15 6-9 8-9 22 0 30l198 198-77 0c-12 0-22 10-22 22 0 12 10 22 22 22l128 0c12 0 22-10 22-22l0-128c0-12-10-22-22-22-12 0-22 10-22 22l0 76-198-198c-4-4-9-6-14-6z"/>
<glyph glyph-name="eye" unicode="&#58;" d="M256 64c-161 0-250 175-254 182-3 6-3 14 0 19 4 8 93 183 254 183 161 0 250-175 254-182 3-6 3-14 0-19-4-8-93-183-254-183z m-210 192c20-34 95-150 210-150 115 0 190 116 210 150-20 34-95 150-210 150-115 0-190-116-210-150z m-24 0z m234-86c-47 0-86 39-86 86 0 47 39 86 86 86 47 0 86-39 86-86 0-47-39-86-86-86z m0 128c-24 0-42-18-42-42 0-24 18-42 42-42 24 0 42 18 42 42 0 24-18 42-42 42z"/>
<glyph glyph-name="bookmark" unicode="&#59;" d="M406 42c-5 0-9 2-13 5l-137 97-137-97c-6-5-15-6-22-2-7 4-11 11-11 19l0 342c0 35 28 64 64 64l213 0c35 0 64-29 64-64l0-342c0-8-5-15-12-19-3-1-6-3-9-3z m-150 150c4 0 9-2 12-4l116-83 0 301c0 11-10 21-22 21l-212 0c-12 0-22-10-22-21l0-301 116 83c3 2 8 4 12 4z"/>
<glyph glyph-name="bar-chart-4" unicode="&#60;" d="M384 64c-12 0-22 10-22 22l0 340c0 12 10 22 22 22 12 0 22-10 22-22l0-341c0-11-10-21-22-21z m-128 0c-12 0-22 10-22 22l0 128c0 11 10 21 22 21 12 0 22-10 22-21l0-128c0-12-10-22-22-22z m-128 0c-12 0-22 10-22 22l0 212c0 12 10 22 22 22 12 0 22-10 22-22l0-213c0-11-10-21-22-21z"/>
<glyph glyph-name="bar-chart-3" unicode="&#61;" d="M384 64c-12 0-22 10-22 22l0 84c0 12 10 22 22 22 12 0 22-10 22-22l0-85c0-11-10-21-22-21z m-128 0c-12 0-22 10-22 22l0 212c0 12 10 22 22 22 12 0 22-10 22-22l0-213c0-11-10-21-22-21z m-128 0c-12 0-22 10-22 22l0 340c0 12 10 22 22 22 12 0 22-10 22-22l0-341c0-11-10-21-22-21z"/>
<glyph glyph-name="bar-chart" unicode="&#62;" d="M256 64c-12 0-22 10-22 22l0 212c0 12 10 22 22 22 12 0 22-10 22-22l0-213c0-11-10-21-22-21z m128 0c-12 0-22 10-22 22l0 340c0 12 10 22 22 22 12 0 22-10 22-22l0-341c0-11-10-21-22-21z m-256 0c-12 0-22 10-22 22l0 84c0 12 10 22 22 22 12 0 22-10 22-22l0-85c0-11-10-21-22-21z"/>
<glyph glyph-name="at-sign" unicode="&#63;" d="M256 490c-130 0-234-104-234-234 0-62 24-122 68-166 45-44 104-68 166-68 51 0 102 16 142 48 10 7 11 20 4 29-7 10-21 12-30 4-16-12-35-22-55-29-20-6-41-10-62-10-51 0-99 20-135 56-37 37-57 85-57 136 0 51 20 99 57 136 36 36 84 56 135 56 106 0 192-86 192-192l0-21c0-24-18-42-42-42-24 0-43 18-43 42l0 107c0 11-9 21-21 21-12 0-22-10-22-21-17 13-39 20-63 20-59 0-106-47-106-106 0-59 47-106 106-106 32 0 60 13 79 35 16-22 41-36 70-36 47 0 85 38 85 85l0 22c0 129-104 234-234 234z m63-242c-4-31-30-56-63-56-35 0-64 29-64 64 0 35 29 64 64 64 33 0 59-25 63-56 1-2 1-5 1-8 0-3 0-6-1-8z m1 8c0-3 0-6-1-8l0 16c1-2 1-5 1-8z"/>
<glyph glyph-name="arrow-up" unicode="&#64;" d="M256 86c-12 0-22 9-22 21l0 247-112-113c-8-8-22-8-30 0-9 8-9 22 0 30l149 150c8 8 22 8 30 0l150-150c8-8 8-22 0-30-8-8-22-8-30 0l-113 113 0-248c0-11-10-20-22-20z"/>
<glyph glyph-name="arrow-right" unicode="&#91;" d="M256 86c-6 0-11 2-15 6-8 8-8 22 0 30l113 113-248 0c-11 0-21 10-21 22 0 11 10 21 21 21l248 0-113 112c-8 8-8 22 0 30 8 9 22 9 30 0l150-149c4-4 6-9 6-15 0-6-2-11-6-15l-150-149c-4-4-9-6-15-6z"/>
<glyph glyph-name="arrow-out" unicode="&#93;" d="M214 42l-86 0c-35 0-64 29-64 64l0 300c0 35 29 64 64 64l86 0c11 0 21-10 21-22 0-12-10-22-21-22l-86 0c-12 0-22-9-22-21l0-299c0-11 10-21 22-21l86 0c11 0 21-10 21-22 0-11-10-21-21-21z m128 86c-6 0-11 2-15 6-9 8-9 22 0 30l70 70-205 0c-12 0-22 10-22 22 0 12 10 22 22 22l204 0-70 70c-8 8-8 22 0 30 8 8 22 8 30 0l107-107c8-8 8-22 0-30l-107-107c-4-4-9-6-14-6z"/>
<glyph glyph-name="arrow-left" unicode="&#94;" d="M256 86c-6 0-11 2-15 6l-149 149c-9 8-9 22 0 30l149 150c8 8 22 8 30 0 9-8 9-22 0-30l-113-113 248 0c11 0 21-10 21-22 0-12-10-22-21-22l-248 0 113-113c9-8 9-22 0-30-4-3-9-5-15-5z"/>
<glyph glyph-name="arrow-down" unicode="&#95;" d="M256 86c-6 0-11 2-15 6l-149 149c-9 8-9 22 0 30 8 9 22 9 30 0l113-113 0 248c0 11 10 21 22 21 11 0 21-10 21-21l0-248 113 113c8 9 22 9 30 0 9-8 9-22 0-30l-150-149c-4-4-9-6-15-6z"/>
<glyph glyph-name="alert-triangle" unicode="&#96;" d="M75 42c-11 0-22 4-31 9-15 9-26 23-30 39-4 16-2 34 6 49l181 302c5 9 13 16 22 21 30 19 69 9 88-21l181-302c5-10 8-21 8-32 1-35-28-65-63-65z m163 377l-181-302c-2-4-3-10-2-16 2-5 5-10 10-12 3-2 7-3 10-3l361 0c12 0 21 9 21 21 0 4-1 7-3 10l-180 302c-6 10-19 13-29 7-3-2-5-5-7-7z m18-205c-12 0-22 9-22 21l0 85c0 12 10 22 22 22 12 0 22-10 22-22l0-86c0-11-10-20-22-20z m0-86c-12 0-22 10-22 22 0 11 10 21 21 21 12 0 22-10 22-21 0-12-9-22-21-22z"/>
<glyph glyph-name="alert-circle" unicode="&#123;" d="M256 22c-130 0-234 104-234 234 0 130 104 234 234 234 130 0 234-104 234-234 0-130-104-234-234-234z m0 426c-106 0-192-86-192-192 0-106 86-192 192-192 106 0 192 86 192 192 0 106-86 192-192 192z m0-214c-12 0-22 10-22 22l0 86c0 11 10 21 22 21 12 0 22-10 22-21l0-86c0-12-10-22-22-22z m0-84c-12 0-22 9-22 21 0 12 10 22 21 22 12 0 22-10 22-22 0-12-9-21-21-21z"/>
<glyph glyph-name="airplay" unicode="&#124;" d="M426 128l-21 0c-12 0-22 10-22 22 0 11 10 21 22 21l21 0c12 0 22 10 22 22l0 213c0 11-10 21-22 21l-340 0c-12 0-22-10-22-21l0-214c0-12 10-22 22-22l21 0c12 0 22-9 22-21 0-12-11-21-23-21l-21 0c-35 0-63 29-63 64l0 214c0 35 28 64 64 64l341 0c35 0 64-29 64-64l0-214c-1-35-29-64-65-64z m-64-86l-212 0c-9 0-16 5-20 13-4 7-3 16 3 22l107 128c4 5 10 8 16 8 6 0 12-3 16-8l107-128c5-6 7-15 3-22-4-7-11-13-20-13z m-167 44l122 0-61 73z"/>
<glyph glyph-name="gnews" unicode="&#125;" d="M442 406l-372 0c-15 0-28-12-28-28l0-245c0-15 13-28 28-28l372 0c16 0 28 13 28 28l0 245c0 16-13 28-28 28z m-150-150c0-55-45-99-99-99-58 0-105 50-99 109 4 44 39 81 83 88 30 4 60-5 82-24 1-1 1-3 0-4l-20-21c-1-1-2-1-3 0-12 10-28 17-43 17-5 0-9-1-12-1-28-6-50-30-53-58-4-39 27-72 65-72 29 0 53 19 62 45 0 2-1 4-3 4l-56 0c-1 0-2 1-2 2l0 29c0 1 1 2 2 2l94 0c1 0 2-1 2-2l0-15z m126 4l0-10c0-6-5-11-10-11l-82 0 0 33 80 0c7 1 12-5 12-12z m-9-67l0-11c0-6-5-11-10-11l-73 0 0 34 72 0c6 0 11-6 11-12z m0 135l0-10c0-6-5-11-10-11l-73 0 0 33 72 0c6 1 11-5 11-12z"/>
</font>
</defs>
</svg>
